<svg viewBox="0 0 1500 1500" xmlns:xlink="http://www.w3.org/1999/xlink" version="1.1" xmlns="http://www.w3.org/2000/svg" id="Layer_1">
  
  <defs>
    <style>
      .st0 {
        fill: none;
      }

      .st1 {
        clip-path: url(#clippath-1);
      }

      .st2 {
        fill: #00ced1;
      }

      .st3 {
        clip-path: url(#clippath-2);
      }

      .st4 {
        clip-path: url(#clippath);
      }
    </style>
    <clipPath id="clippath">
      <rect height="504.6" width="825.3" y="138.1" x="332" class="st0"></rect>
    </clipPath>
    <clipPath id="clippath-1">
      <rect height="233.3" width="466.9" y="409.3" x="123.8" class="st0"></rect>
    </clipPath>
    <clipPath id="clippath-2">
      <rect height="233.3" width="467.1" y="409.3" x="898.7" class="st0"></rect>
    </clipPath>
  </defs>
  <g class="st4">
    <path d="M861.4,409.9c79.6-7.2,157.6-26.8,233-53.3,17.8-6.6,37.8-11.6,50.1-27.3,14.8-17.5,16.3-43.5,5.9-63.5-16.2-32.3-31.8-64.9-48.6-96.9-8.3-16.9-25.6-26.4-43.3-30.8h-11c-24.4,3-48.9,6-72.8,12.4-68.9,18.3-131.7,61.4-171.2,121.1,16.5,4.8,30,15.4,38.4,30.4,48.8-26.1,102.5-48,158.8-46.9,16.7,1.3,21,26.7,7.3,34.9-10.1,4-21.2,3.9-31.8,5.6-48.3,5.5-93.4,26.3-134.2,52-.3,20.7-.4,41.4-.5,62-12.8.1-25.7.2-38.5,0-1.1-27.2,1.3-54.6-1-81.7-.6-11.6-13.2-15.8-23.1-15.1-25.7,0-51.6-1.4-77.2.8-9.4.5-15.1,9.8-14.9,18.6-1.3,25.8.3,51.7-.5,77.6-12.8,0-25.7,0-38.6,0,0-20.7,0-41.4-.4-62.1-47.4-31.1-101.9-51.1-158.6-55.3-20.5-1-20.4-35.4-.3-37.1,56.3-1.2,110.2,20.9,159.1,46.9,8.7-14.8,22.3-25.4,38.6-30.5-32.4-49.2-81.1-86.9-135.4-109.1-34.6-14.2-71.8-20.3-108.8-24.3h-11c-15.2,4.1-30.8,11.1-39.4,25-12.8,20.4-21.9,42.8-33.2,64-8.3,17.5-18.9,34-24.4,52.6-7.4,27.7,9.6,58.5,36.6,67.6,82.6,31.7,169,54.3,257.3,62.6,1.3,77.5-.2,155,.7,232.4,77.5.4,155,.3,232.5,0,.7-77.5-.5-155,.6-232.5Z" class="st2"></path>
  </g>
  <g class="st1">
    <path d="M589.3,642.4c.2-77.5.3-155,0-232.5-135.9-.2-271.7-.3-407.6,0-27.5-.9-49.6,20.5-57.9,45.3v141.7c8.1,25,30.4,46.4,58,45.5,135.8.2,271.7.2,407.5,0Z" class="st2"></path>
  </g>
  <g class="st3">
    <path d="M1307.5,409.9c-135.8-.3-271.7-.2-407.5,0-.3,77.5-.2,155,0,232.5,135.9.3,271.7.3,407.6,0,27.5,1,49.6-20.4,57.9-45.3v-141.7c-8.1-25-30.4-46.4-58-45.5Z" class="st2"></path>
  </g>
  <path d="M201.6,681.5c-.3,213.4-.2,426.9,0,640.3-.9,27.5,20.5,49.7,45.3,58h381.4c0-232.8.2-465.6-.1-698.3-142.2-.3-284.3-.3-426.5,0Z" class="st2"></path>
  <path d="M667.2,681.5c-.4,232.7,0,465.5-.1,698.3h155.2c0-232.8.2-465.5,0-698.3-51.7-.4-103.3-.3-155,0Z" class="st2"></path>
  <path d="M861.2,681.5c-.4,232.8,0,465.6-.2,698.3h381.2c25-8.1,46.4-30.4,45.5-58,.2-213.4.3-426.9,0-640.3-142.1-.3-284.3-.3-426.4,0Z" class="st2"></path>
</svg>