<svg viewBox="0 0 1500 1500" version="1.1" xmlns="http://www.w3.org/2000/svg" id="Layer_1">
  
  <defs>
    <style>
      .st0 {
        fill: #fff;
      }

      .st1 {
        fill: #00ced1;
      }
    </style>
  </defs>
  <circle r="237.3" cy="512.1" cx="784.6" class="st1"></circle>
  <path d="M523.8,434.9c-7.4,24.9-10.4,50.7-11.9,76.6-18.4,1.5-40.3-2.3-58.3.4-20.3,3.1-18.9,17.8-18.3,34.4,2.7,79,16.4,160.4,18.9,239.8,1.2,10,9.9,16.5,19.6,17.9,19.2,2.6,77.2,2.4,96.9.2,9.7-1.1,15.9-5.8,19.2-14.8l-6.4-94.1c14.9,13.3,28,28.4,45.1,39.2,5.5,19.7-10.6,64.4,17.4,69.4,15.7,2.8,83.4,2.5,99.9.2s18-9.1,20.8-20.4l38,.2c.2,11.4,6.6,18.6,18.1,20.2,15.8,2.1,86.7,2.4,101.2-.6,27.7-5.8,12.7-49.3,17.8-69l43.4-37.4-5.9,87.7c.6,9.4,5.5,16,14.7,18.4,14.2,3.7,82.1,2.8,99.3,1.2,19.1-1.7,20.7-11.4,22.9-28.2,10.1-79.4,8.2-163.6,18.9-243.3,1.2-8.3-10.2-21.3-18-21.3h-60.4c1.2-26.1-5.3-51.3-10.2-76.6h152.3c21.6,0,52.5,39.6,46.8,62.1l-48.4,336.2c.1,17.6-28,47.6-44.3,47.6H437.9l-1.8,3.5,4.4,35.7h691.8c7,0,22,8.6,27,13.8,19,19.6,16.5,59.4-5.9,75.4-2,1.4-14.7,7.8-16.1,7.8h-179.5l36.3,13.9c88.2,67.4,34.4,204.7-82.6,177.9-81.1-18.6-92.6-140.9-21.2-180.2l31.8-11.6h-331.8l34.6,13.9c88.4,67.4,34.5,204.7-82.6,177.9-84-19.3-92.3-149.4-14.4-183.6l25-8.2h-162.5c-9.4,0-27-12.4-33.1-19.6-10.8-12.7-12.7-25.2-15.1-41-14.8-96.9-22.7-198.3-34.3-295.9-9.2-77.7-20.1-155.4-29-233.2-.5-9.4,8.3-14.3,12.9-22.9,2.4-4.5,7.6-16.9,7.6-21.3v-84.2c32.1-3.1,61.9,12.8,69.3,45.6,6.1,27.3,5.3,58.9,10.8,86.2s.7,3.2,2.5,4.3h142.1Z" class="st1"></path>
  <path d="M138.9,278.8c23.9-2.6,76.2-3,99.9-.5,11.5,1.2,20.3,7.7,21.3,19.5,1.7,18.3,2.1,62.2,0,80.1s-7.9,16.7-17.9,17.9c-22.9,2.8-82.1,2.3-105.5,0-65.8-6.6-69-109.3,2.2-116.9Z" class="st1"></path>
  <polygon points="534 550.6 549.3 765 491.5 765 477 550.6 534 550.6" class="st1"></polygon>
  <path d="M1093.9,550.6l-17.9,214.4h-57l10.3-133.5c10.5-26,21.3-52.6,23.7-80.9h40.8Z" class="st1"></path>
  <circle r="106" cy="1118.7" cx="575.3" class="st1"></circle>
  <circle r="106" cy="1118.7" cx="940.8" class="st1"></circle>
  <polygon points="-329.6 1081.4 -329.6 1082.4 -330.3 1083.1 -329.6 1084.4 -329.6 1085.4 -330.6 1087.4 -332.6 1087.4 -331.6 1081.4 -329.6 1081.4" class="st0"></polygon>
  <polygon points="-329.6 1084.4 -330.3 1083.1 -329.6 1082.4 -329.6 1084.4"></polygon>
  <polygon points="-329.6 1085.4 -329.6 1087.4 -330.6 1087.4 -329.6 1085.4"></polygon>
  <g>
    <path d="M849.3,382.9v18.1l.6.6h32.1c15.1,0,32.3,19.3,31.9,34.4v188.8c-1,17.8-14.7,32.4-32.4,34.8h-192.9c-16.7-1.4-30.3-14.3-33.1-30.8-.7-65.4-.8-131,0-196.5,2.3-13.6,12.1-25.1,25.3-29.3s19.1-1.5,28.6-1.5,6.9-.7,10.4-.4v-18.3h25c18.3-24.5,61.1-24.6,79.4,0h25ZM831,401.6h-20.1c-.9-1.4-.9-3.3-1.5-5-6.5-18.1-43-18.1-49.5,0-.6,1.7-.6,3.6-1.5,5h-20.1v36.6h92.8v-36.6ZM719.9,420h-30.3c-8,0-16.6,11-16.1,18.9v183.6c.7,10.1,6.6,17.5,16.9,18.9,63.8-.4,127.8.8,191.5-.6,15.7-4.7,13.5-18.7,13.4-31.7-.3-51.6.3-103.1,0-154.6,0-11.6,3-24.8-8.8-31.9s-5.2-2.5-6.4-2.5h-30.7v36.6h-129.4v-36.6Z" class="st0"></path>
    <path d="M719,493.7h130.1c12.8,1.1,12.3,17.4.4,18.6h-129.4c-12.2-1.1-12.7-16.5-1.1-18.6Z" class="st0"></path>
    <path d="M717.8,540.1h133c10.6,2,10.2,16.5-.4,18.2h-131.4c-10.3-1.7-11.1-15.4-1.1-18.2Z" class="st0"></path>
    <path d="M718.6,586.1h131.3c11,1,11.6,16.2.8,18.2h-132.7c-10.1-2.5-9.7-16.3.5-18.2Z" class="st0"></path>
  </g>
</svg>